<?xml version="1.0" standalone="no"?>
<!DOCTYPE svg PUBLIC "-//W3C//DTD SVG 20010904//EN"
 "http://www.w3.org/TR/2001/REC-SVG-20010904/DTD/svg10.dtd">
<svg version="1.0" xmlns="http://www.w3.org/2000/svg"
 width="320.000000pt" height="320.000000pt" viewBox="0 0 320.000000 320.000000"
 preserveAspectRatio="xMidYMid meet">
<metadata>
Created by potrace 1.14, written by Peter Selinger 2001-2017
</metadata>
<g transform="translate(0.000000,320.000000) scale(0.100000,-0.100000)"
fill="#000000" stroke="none">
<path d="M825 3141 c-107 -11 -183 -61 -231 -151 -18 -33 -19 -87 -24 -1155
-3 -616 -2 -1142 2 -1169 10 -67 38 -116 86 -151 l41 -30 0 -203 c1 -120 5
-211 11 -223 16 -30 55 -23 102 18 84 73 72 71 126 21 72 -68 97 -82 121 -68
20 10 21 19 21 230 l0 220 43 1 c23 1 321 4 662 9 688 8 670 6 741 75 76 73
72 6 73 1251 l1 1109 -24 50 c-31 66 -78 112 -146 144 l-55 26 -740 1 c-407 1
-771 -2 -810 -5z m806 -81 c632 0 638 0 644 -20 9 -27 141 -187 165 -200 10
-5 32 -10 48 -10 27 0 30 -4 34 -36 2 -19 2 -36 -1 -38 -3 -2 -38 -1 -77 2
-69 4 -71 5 -83 37 -18 51 -86 121 -146 150 -81 40 -158 44 -228 12 -61 -28
-150 -105 -173 -148 l-14 -27 -37 20 c-51 26 -161 22 -193 -7 -18 -17 -23 -17
-30 -5 -75 133 -213 209 -330 182 -90 -21 -182 -96 -215 -176 -14 -33 -19 -36
-55 -36 l-40 0 0 156 0 157 46 -7 c26 -3 334 -6 685 -6z m-821 -254 l0 -244
-57 -5 c-32 -3 -67 -8 -78 -12 -20 -6 -20 -1 -20 187 0 106 4 204 9 218 17 49
80 99 129 100 16 0 17 -18 17 -244z m1620 212 c76 -52 89 -108 22 -93 -32 7
-52 30 -70 83 -14 40 0 42 48 10z m-240 -167 c121 -72 121 -251 1 -336 -37
-26 -51 -30 -111 -30 -60 0 -74 4 -111 30 -59 42 -89 102 -89 180 0 72 24 113
91 153 81 48 143 49 219 3z m-840 4 c160 -81 138 -320 -32 -366 -128 -34 -250
70 -252 216 -1 51 3 65 27 97 60 78 165 100 257 53z m417 -159 c12 -15 23 -40
23 -56 0 -37 30 -107 65 -148 47 -56 108 -85 190 -90 151 -9 235 34 291 151
19 39 34 79 34 89 0 16 10 18 74 18 l74 0 7 -102 c3 -57 5 -393 3 -748 l-3
-644 -30 -6 c-51 -11 -90 -37 -145 -97 -54 -59 -80 -106 -80 -143 0 -20 -3
-20 -527 -16 -291 2 -599 5 -685 5 l-158 1 0 870 c0 689 3 870 13 870 6 0 21
3 33 6 18 5 23 -1 32 -38 14 -54 64 -131 108 -164 75 -58 220 -72 310 -30 84
39 154 143 154 227 0 21 9 35 38 54 32 23 45 26 96 22 49 -3 63 -8 83 -31z
m-959 -328 l3 -98 -29 0 c-16 0 -51 -7 -78 -15 -27 -8 -50 -15 -51 -15 -2 0
-3 40 -3 88 0 72 3 92 18 105 27 24 63 36 102 34 l35 -2 3 -97z m2 -482 l0
-285 -47 -6 c-27 -4 -60 -10 -75 -15 l-28 -9 -2 127 c-1 70 -2 196 -3 281 l0
154 40 18 c22 10 57 19 78 19 l37 0 0 -284z m0 -671 l0 -285 -27 -5 c-16 -4
-48 -15 -72 -26 -24 -11 -46 -17 -50 -14 -10 10 -9 548 1 567 13 27 58 47 106
48 l42 0 0 -285z m1686 -167 c-3 -18 -15 -44 -25 -58 -19 -26 -86 -58 -98 -47
-3 4 -1 24 5 45 9 30 22 44 59 65 62 34 67 34 59 -5z m24 -235 c-1 -122 -27
-175 -105 -216 -39 -20 -55 -21 -635 -24 -327 -2 -616 -7 -642 -12 l-48 -8 0
32 c0 39 -19 58 -57 53 l-28 -3 -5 -243 -5 -243 -40 41 c-48 50 -73 51 -124 5
-21 -19 -41 -35 -45 -35 -3 0 -6 106 -6 235 0 231 0 234 -22 246 -19 10 -25 8
-44 -15 l-23 -26 -20 26 c-42 53 -16 138 53 176 15 9 229 12 826 13 738 0 809
2 849 18 23 9 55 26 70 37 45 34 51 27 51 -57z"/>
<path d="M2021 2753 c-11 -10 -24 -32 -27 -50 -5 -27 -1 -37 24 -63 66 -65
165 -14 141 73 -4 16 -16 35 -26 43 -25 19 -87 17 -112 -3z"/>
<path d="M1209 2760 c-26 -15 -41 -62 -30 -93 20 -53 118 -72 153 -30 20 25
15 80 -12 108 -25 26 -79 34 -111 15z"/>
<path d="M1946 2243 c-53 -104 -160 -167 -286 -168 -115 0 -210 52 -265 146
-33 56 -62 72 -91 49 -27 -23 -16 -66 34 -132 58 -78 120 -120 205 -142 202
-50 383 22 471 188 26 47 28 58 18 80 -8 18 -19 26 -37 26 -19 0 -30 -10 -49
-47z"/>
<path d="M1605 1800 c-39 -43 -9 -110 51 -110 38 0 64 29 64 71 0 54 -77 80
-115 39z"/>
</g>
</svg>
